<?xml version="1.0" encoding="UTF-8" standalone="no"?>
<!-- Created with Inkscape (http://www.inkscape.org/) -->

<svg
   xmlns:osb="http://www.openswatchbook.org/uri/2009/osb"
   xmlns:dc="http://purl.org/dc/elements/1.1/"
   xmlns:cc="http://creativecommons.org/ns#"
   xmlns:rdf="http://www.w3.org/1999/02/22-rdf-syntax-ns#"
   xmlns:svg="http://www.w3.org/2000/svg"
   xmlns="http://www.w3.org/2000/svg"
   xmlns:sodipodi="http://sodipodi.sourceforge.net/DTD/sodipodi-0.dtd"
   xmlns:inkscape="http://www.inkscape.org/namespaces/inkscape"
   width="744.09448819"
   height="1052.3622047"
   id="svg3075"
   version="1.1"
   inkscape:version="0.48.3.1 r9886"
   sodipodi:docname="New document 2">
  <defs
     id="defs3077">
    <linearGradient
       id="linearGradient5345"
       osb:paint="solid">
      <stop
         style="stop-color:#000000;stop-opacity:1;"
         offset="0"
         id="stop5347" />
    </linearGradient>
    <linearGradient
       id="linearGradient5327"
       osb:paint="solid">
      <stop
         style="stop-color:#800000;stop-opacity:1;"
         offset="0"
         id="stop5329" />
    </linearGradient>
    <clipPath
       clipPathUnits="userSpaceOnUse"
       id="clipPath5449">
      <rect
         style="fill:#000000;fill-rule:evenodd;stroke:#000000;stroke-width:2.40838027px;stroke-linecap:butt;stroke-linejoin:miter;stroke-opacity:1"
         id="rect5451"
         width="288.39856"
         height="177.2403"
         x="216.17265"
         y="252.4845"
         ry="0" />
    </clipPath>
    <clipPath
       clipPathUnits="userSpaceOnUse"
       id="clipPath5457">
      <rect
         style="fill:#000000;fill-rule:evenodd;stroke:#000000;stroke-width:1.95763659px;stroke-linecap:butt;stroke-linejoin:miter;stroke-opacity:1"
         id="rect5459"
         width="341.6377"
         height="284.61047"
         x="365.20905"
         y="111.15255" />
    </clipPath>
    <marker
       refX="0"
       refY="0"
       orient="auto"
       id="Arrow2Mstart"
       style="overflow:visible">
      <path
         inkscape:connector-curvature="0"
         d="M 8.7185878,4.0337352 -2.2072895,0.01601326 8.7185884,-4.0017078 c -1.7454984,2.3720609 -1.7354408,5.6174519 -6e-7,8.035443 z"
         transform="scale(0.6,0.6)"
         id="path3756"
         style="font-size:12px;fill:#0d6299;fill-rule:evenodd;stroke:#0d6299;stroke-width:0.625;stroke-linejoin:round" />
    </marker>
    <marker
       refX="0"
       refY="0"
       orient="auto"
       id="Arrow2Mend"
       style="overflow:visible">
      <path
         inkscape:connector-curvature="0"
         d="M 8.7185878,4.0337352 -2.2072895,0.01601326 8.7185884,-4.0017078 c -1.7454984,2.3720609 -1.7354408,5.6174519 -6e-7,8.035443 z"
         transform="scale(-0.6,-0.6)"
         id="path3759"
         style="font-size:12px;fill:#0d6299;fill-rule:evenodd;stroke:#0d6299;stroke-width:0.625;stroke-linejoin:round" />
    </marker>
    <marker
       refX="0"
       refY="0"
       orient="auto"
       id="marker5886"
       style="overflow:visible">
      <path
         inkscape:connector-curvature="0"
         d="M 8.7185878,4.0337352 -2.2072895,0.01601326 8.7185884,-4.0017078 c -1.7454984,2.3720609 -1.7354408,5.6174519 -6e-7,8.035443 z"
         transform="scale(-0.6,-0.6)"
         id="path5888"
         style="font-size:12px;fill:#0d6299;fill-rule:evenodd;stroke:#0d6299;stroke-width:0.625;stroke-linejoin:round" />
    </marker>
    <marker
       refX="0"
       refY="0"
       orient="auto"
       id="Arrow1Mend"
       style="overflow:visible">
      <path
         inkscape:connector-curvature="0"
         d="M 0,0 5,-5 -12.5,0 5,5 0,0 z"
         transform="matrix(-0.4,0,0,-0.4,-4,0)"
         id="path3741"
         style="fill:#00b800;fill-rule:evenodd;stroke:#00b800;stroke-width:1pt;marker-start:none" />
    </marker>
    <marker
       refX="0"
       refY="0"
       orient="auto"
       id="Arrow1Mstart"
       style="overflow:visible">
      <path
         inkscape:connector-curvature="0"
         d="M 0,0 5,-5 -12.5,0 5,5 0,0 z"
         transform="matrix(0.4,0,0,0.4,4,0)"
         id="path3738"
         style="fill:#00b800;fill-rule:evenodd;stroke:#00b800;stroke-width:1pt;marker-start:none" />
    </marker>
    <marker
       refX="0"
       refY="0"
       orient="auto"
       id="marker5894"
       style="overflow:visible">
      <path
         inkscape:connector-curvature="0"
         d="M 0,0 5,-5 -12.5,0 5,5 0,0 z"
         transform="matrix(-0.4,0,0,-0.4,-4,0)"
         id="path5896"
         style="fill:#00b800;fill-rule:evenodd;stroke:#00b800;stroke-width:1pt;marker-start:none" />
    </marker>
  </defs>
  <sodipodi:namedview
     id="base"
     pagecolor="#ffffff"
     bordercolor="#666666"
     borderopacity="1.0"
     inkscape:pageopacity="0.0"
     inkscape:pageshadow="2"
     inkscape:zoom="2"
     inkscape:cx="349.80313"
     inkscape:cy="698.90611"
     inkscape:document-units="px"
     inkscape:current-layer="layer1"
     showgrid="false"
     inkscape:window-width="1920"
     inkscape:window-height="1150"
     inkscape:window-x="0"
     inkscape:window-y="0"
     inkscape:window-maximized="1" />
  <metadata
     id="metadata3080">
    <rdf:RDF>
      <cc:Work
         rdf:about="">
        <dc:format>image/svg+xml</dc:format>
        <dc:type
           rdf:resource="http://purl.org/dc/dcmitype/StillImage" />
        <dc:title></dc:title>
      </cc:Work>
    </rdf:RDF>
  </metadata>
  <g
     inkscape:label="Layer 1"
     inkscape:groupmode="layer"
     id="layer1">
    <g
       style="stroke:#808080;stroke-width:1;stroke-miterlimit:4;stroke-opacity:1;stroke-dasharray:4, 8;stroke-dashoffset:0"
       id="g18"
       transform="matrix(0,-1.25,-1.25,0,842.02228,754.27857)">
      <path
         style="fill:none;stroke:#808080;stroke-width:1;stroke-linecap:round;stroke-linejoin:round;stroke-miterlimit:4;stroke-opacity:1;stroke-dasharray:4, 8;stroke-dashoffset:0"
         id="path20"
         d="m 283.32,265.39 1.08,0 0.96,0.36 1.08,0.48 0.96,0.72 0.96,0.84 0.96,1.08 1.08,1.32 0.96,1.44 0.96,1.68 0.96,1.8 0.96,2.04 0.84,2.28 0.96,2.4 0.96,2.64 0.84,2.76 0.84,2.88 0.84,3.12 0.84,3.24 0.84,3.48 0.84,3.48 0.72,3.84 0.72,3.84 0.72,4.08 0.72,4.08 0.72,4.32 0.6,4.44 0.6,4.56 0.6,4.68 0.6,4.8 0.6,4.93 0.48,5.03 0.48,5.16 0.48,5.16 0.36,5.28 0.36,5.4 0.36,5.4 0.36,5.52 0.24,5.52 0.24,5.64 0.24,5.64 0.24,5.76 0.12,5.76 0.12,5.76 0.12,5.76 0,5.76 0,5.88 0,5.76 0,5.76 -0.12,5.76 -0.12,5.88 -0.12,5.64 -0.24,5.77 -0.24,5.63 -0.24,5.64 -0.24,5.52 -0.36,5.52 -0.36,5.4 -0.36,5.4 -0.36,5.28 -0.48,5.16 -0.48,5.16 -0.48,5.04 -0.6,4.92 -0.6,4.8 -0.6,4.68 -0.6,4.56 -0.6,4.44 -0.72,4.32 -0.72,4.08 -0.72,4.08 -0.72,3.96 -0.72,3.72 -0.84,3.6 -0.84,3.36 -0.84,3.24 -0.84,3.12 -0.84,3 -0.84,2.76 -0.96,2.52 -0.96,2.4 -0.84,2.28 -0.96,2.04 -0.96,1.8 -0.96,1.68 -0.96,1.44 -1.08,1.32 -0.96,1.08 -0.96,0.84 -0.96,0.72 -1.08,0.49 -0.96,0.35 -1.08,0"
         inkscape:connector-curvature="0" />
    </g>
    <g
       style="stroke:#808080;stroke-width:1.60000002;stroke-miterlimit:4;stroke-opacity:1;stroke-dasharray:none"
       id="g22"
       transform="matrix(0,-1.25,-1.25,0,842.02228,754.27857)">
      <path
         style="fill:none;stroke:#808080;stroke-width:1.60000002;stroke-linecap:round;stroke-linejoin:round;stroke-miterlimit:4;stroke-opacity:1;stroke-dasharray:none"
         id="path24"
         d="m 283.32,605.35 -0.96,0 -0.96,-0.35 -1.08,-0.49 -0.96,-0.72 -0.96,-0.84 -1.08,-1.08 -0.96,-1.32 -0.96,-1.44 -0.96,-1.68 -0.96,-1.8 -0.96,-2.04 -0.96,-2.28 -0.84,-2.4 -0.96,-2.52 -0.84,-2.76 -0.84,-3 -0.96,-3.12 -0.72,-3.24 -0.84,-3.36 -0.84,-3.6 -0.72,-3.72 -0.84,-3.96 -0.72,-4.08 -0.6,-4.08 -0.72,-4.32 -0.6,-4.44 -0.72,-4.56 -0.6,-4.68 -0.48,-4.8 -0.6,-4.92 -0.48,-5.04 -0.48,-5.16 -0.48,-5.16 -0.36,-5.28 -0.36,-5.4 -0.36,-5.4 -0.36,-5.52 -0.24,-5.52 -0.36,-5.64 -0.12,-5.63 -0.24,-5.77 -0.12,-5.64 -0.12,-5.88 -0.12,-5.76 0,-5.76 -0.12,-5.76 0.12,-5.88 0,-5.76 0.12,-5.76 0.12,-5.76 0.12,-5.76 0.24,-5.76 0.12,-5.64 0.36,-5.64 0.24,-5.52 0.36,-5.52 0.36,-5.4 0.36,-5.4 0.36,-5.28 0.48,-5.16 0.48,-5.16 0.48,-5.03 0.6,-4.93 0.48,-4.8 0.6,-4.68 0.72,-4.56 0.6,-4.44 0.72,-4.32 0.6,-4.08 0.72,-4.08 0.84,-3.84 0.72,-3.84 0.84,-3.48 0.84,-3.48 0.72,-3.24 0.96,-3.12 0.84,-2.88 0.84,-2.76 0.96,-2.64 0.84,-2.4 0.96,-2.28 0.96,-2.04 0.96,-1.8 0.96,-1.68 0.96,-1.44 0.96,-1.32 1.08,-1.08 0.96,-0.84 0.96,-0.72 1.08,-0.48 0.96,-0.36 0.96,0"
         inkscape:connector-curvature="0" />
    </g>
    <g
       style="stroke:#808080;stroke-width:1.60000002;stroke-miterlimit:4;stroke-opacity:1;stroke-dasharray:none"
       id="g26"
       transform="matrix(0,-1.25,-1.25,0,842.02228,754.27857)">
      <path
         style="fill:none;stroke:#808080;stroke-width:1.60000002;stroke-linecap:round;stroke-linejoin:round;stroke-miterlimit:4;stroke-opacity:1;stroke-dasharray:none"
         id="path28"
         d="m 283.32,605.35 -8.88,-0.12 -8.88,-0.72 -8.76,-1.2 -8.76,-1.56 -8.64,-2.16 -8.52,-2.52 -8.4,-3 -8.28,-3.36 -8.04,-3.84 -7.8,-4.2 -7.56,-4.67 -7.32,-5.05 -7.08,-5.4 -6.84,-5.76 -6.36,-6.24 -6.24,-6.36 -5.76,-6.84 -5.4,-7.08 -5.04,-7.32 -4.68,-7.56 -4.2,-7.8 -3.84,-8.04 -3.36,-8.28 -3,-8.4 -2.52,-8.52 -2.16,-8.64 -1.56,-8.76 -1.2,-8.76 -0.72,-8.88 -0.12,-8.88 0.12,-9 0.72,-8.88 1.2,-8.76 1.56,-8.76 2.16,-8.64 2.52,-8.52 3,-8.4 3.36,-8.28 3.84,-8.04 4.2,-7.8 4.68,-7.56 5.04,-7.32 5.4,-7.08 5.76,-6.84 6.24,-6.36 6.36,-6.12 6.84,-5.88 7.08,-5.4 7.32,-5.04 7.56,-4.68 7.8,-4.2 8.04,-3.84 8.28,-3.36 8.4,-3 8.52,-2.52 8.64,-2.04 8.76,-1.68 8.76,-1.2 8.88,-0.6 8.88,-0.24"
         inkscape:connector-curvature="0" />
    </g>
    <g
       style="stroke:#808080;stroke-width:1.60000002;stroke-miterlimit:4;stroke-opacity:1;stroke-dasharray:none"
       id="g30"
       transform="matrix(0,-1.25,-1.25,0,842.02228,754.27857)">
      <path
         style="fill:none;stroke:#808080;stroke-width:1.60000002;stroke-linecap:round;stroke-linejoin:round;stroke-miterlimit:4;stroke-opacity:1;stroke-dasharray:none"
         id="path32"
         d="m 453.36,435.43 0,0.96 -0.36,0.96 -0.48,1.08 -0.72,0.96 -0.84,0.96 -1.08,1.08 -1.32,0.96 -1.44,0.96 -1.68,0.96 -1.92,0.96 -2.04,0.96 -2.16,0.96 -2.52,0.84 -2.52,0.97 -2.76,0.83 -3,0.96 -3.12,0.84 -3.24,0.84 -3.48,0.84 -3.6,0.72 -3.72,0.84 -3.96,0.72 -3.96,0.72 -4.2,0.72 -4.32,0.6 -4.56,0.72 -4.56,0.6 -4.68,0.6 -4.8,0.6 -4.92,0.48 -5.04,0.48 -5.16,0.48 -5.16,0.48 -5.28,0.48 -5.4,0.36 -5.52,0.36 -5.52,0.24 -5.52,0.36 -5.64,0.24 -5.64,0.24 -5.76,0.12 -5.76,0.12 -5.76,0.12 -5.88,0.12 -5.76,0.12 -5.76,0 -5.88,-0.12 -5.76,0 -5.88,-0.12 -5.76,-0.12 -5.76,-0.12"
         inkscape:connector-curvature="0" />
    </g>
    <g
       style="stroke:#8c0000;stroke-width:1.60000001999999997;stroke-miterlimit:4;stroke-opacity:1;stroke-dasharray:none"
       id="g46"
       transform="matrix(0,-1.25,-1.25,0,842.02228,754.27857)">
      <path
         style="fill:none;stroke:#8c0000;stroke-width:1.60000001999999997;stroke-linecap:round;stroke-linejoin:round;stroke-miterlimit:4;stroke-opacity:1;stroke-dasharray:none"
         id="path48"
         d="m 270.6,392.35 -0.24,3.48 -0.36,3.6 -0.24,3.6 -0.24,3.72 -0.24,3.72 -0.24,3.84 -0.12,3.96 -0.12,3.84 -0.12,3.96 0,3.96 -0.12,4.08 0,3.96 0.12,3.96 0,3.97 0.12,3.95"
         inkscape:connector-curvature="0" />
    </g>
    <path
       style="fill:none;stroke:#0d6299;stroke-width:2;stroke-linecap:round;stroke-linejoin:round;stroke-miterlimit:4;stroke-opacity:1;stroke-dasharray:none;marker-start:url(#Arrow2Mstart);marker-end:url(#Arrow2Mend)"
       id="path16"
       d="m 545.68478,400.12857 -247.95,0 -42.3,43.05"
       inkscape:connector-curvature="0" />
    <g
       style="stroke:#8c0000;stroke-width:1.60000001999999997;stroke-miterlimit:4;stroke-opacity:1;stroke-dasharray:none"
       id="g34"
       transform="matrix(0,-1.25,-1.25,0,842.02228,754.27857)">
      <path
         style="fill:none;stroke:#8c0000;stroke-width:1.60000001999999997;stroke-linecap:round;stroke-linejoin:round;stroke-miterlimit:4;stroke-opacity:1;stroke-dasharray:none"
         id="path36"
         d="m 363,358.51 -79.68,76.92"
         inkscape:connector-curvature="0" />
    </g>
    <g
       style="stroke:#808080;stroke-width:1.60000002;stroke-miterlimit:4;stroke-opacity:1;stroke-dasharray:none"
       id="g38"
       transform="matrix(0,-1.25,-1.25,0,842.02228,754.27857)">
      <path
         style="fill:none;stroke:#808080;stroke-width:1.60000002;stroke-linecap:round;stroke-linejoin:round;stroke-miterlimit:4;stroke-opacity:1;stroke-dasharray:none"
         id="path40"
         d="m 453.36,435.43 -0.12,-3.96 -0.48,-3.96 -0.96,-3.96 -1.2,-3.84 -1.56,-3.84 -1.92,-3.84 -2.16,-3.84 -2.64,-3.72 -2.88,-3.6 -3.24,-3.6 -3.48,-3.48 -3.84,-3.48 -4.08,-3.24 -4.44,-3.24 -4.68,-3.12 -5.04,-3 -5.16,-2.88 -5.52,-2.88 -5.76,-2.64 -5.88,-2.4 -6.24,-2.4 -6.36,-2.28 -6.48,-2.04 -6.84,-1.92 -6.84,-1.68 -7.08,-1.68 -7.2,-1.44 -7.2,-1.2 -7.44,-1.08 -7.44,-0.96 -7.56,-0.72 -7.68,-0.6 -7.68,-0.36 -7.68,-0.24 -7.68,0 -7.68,0.12 -7.68,0.36 -7.68,0.48"
         inkscape:connector-curvature="0" />
    </g>
    <g
       style="stroke:#8c0000;stroke-width:1.60000001999999997;stroke-miterlimit:4;stroke-opacity:1;stroke-dasharray:none"
       id="g42"
       transform="matrix(0,-1.25,-1.25,0,842.02228,754.27857)">
      <path
         style="fill:none;stroke:#8c0000;stroke-width:1.60000001999999997;stroke-linecap:round;stroke-linejoin:round;stroke-miterlimit:4;stroke-opacity:1;stroke-dasharray:none"
         id="path44"
         d="m 257.88,349.27 25.44,86.16"
         inkscape:connector-curvature="0" />
    </g>
    <g
       style="stroke:#8c0000;stroke-width:1.60000001999999997;stroke-miterlimit:4;stroke-opacity:1;stroke-dasharray:none"
       id="g50"
       transform="matrix(0,-1.25,-1.25,0,842.02228,754.27857)">
      <path
         style="fill:none;stroke:#8c0000;stroke-width:1.60000001999999997;stroke-linecap:round;stroke-linejoin:round;stroke-miterlimit:4;stroke-opacity:1;stroke-dasharray:none"
         id="path52"
         d="m 274.92,406.63 4.44,-0.24 4.56,0 4.44,0.12 4.56,0.24 4.32,0.48 4.44,0.72 4.2,0.84 4.08,0.96"
         inkscape:connector-curvature="0" />
    </g>
    <g
       id="g58"
       transform="matrix(0,-1.25,-1.25,0,842.02228,754.27857)">
      <path
         style="fill:none;stroke:#00b800;stroke-width:0.72000003;stroke-linecap:round;stroke-linejoin:round;stroke-miterlimit:10;stroke-opacity:1;stroke-dasharray:none"
         id="path60"
         d="m 337.92,327.31 0,48.72 50.16,13.56 0,-48.72 -50.16,-13.56 z"
         inkscape:connector-curvature="0" />
    </g>
    <path
       style="fill:#ffffff;fill-opacity:0.62980771;stroke:#00b800;stroke-width:2;stroke-linecap:round;stroke-linejoin:round;stroke-miterlimit:10;stroke-opacity:1;stroke-dasharray:none"
       id="path72"
       d="m 371.98478,331.87857 -16.95,-62.7 60.9,0 16.95,62.7 -60.9,0 z"
       inkscape:connector-curvature="0" />
    <g
       style="fill:none;stroke:#808080;stroke-width:1.60000002;stroke-miterlimit:4;stroke-opacity:1;stroke-dasharray:none"
       id="g74"
       transform="matrix(0,-1.25,-1.25,0,842.02228,754.27857)">
      <path
         style="fill:none;stroke:#808080;stroke-width:1.60000002;stroke-linecap:round;stroke-linejoin:round;stroke-miterlimit:4;stroke-opacity:1;stroke-dasharray:none"
         id="path76"
         d="m 283.32,265.39 9,0.24 8.88,0.6 8.76,1.2 8.76,1.68 8.64,2.04 8.52,2.52 8.4,3 8.28,3.36 8.04,3.84 7.8,4.2 7.56,4.68 7.32,5.04 7.08,5.4 6.84,5.88 6.36,6.12 6.12,6.36 5.88,6.84 5.4,7.08 5.04,7.32 4.68,7.56 4.2,7.8 3.84,8.04 3.36,8.28 3,8.4 2.52,8.52 2.04,8.64 1.68,8.76 1.2,8.76 0.6,8.88 0.24,9 -0.24,8.88 -0.6,8.88 -1.2,8.76 -1.68,8.76 -2.04,8.64 -2.52,8.52 -3,8.4 -3.36,8.28 -3.84,8.04 -4.2,7.8 -4.68,7.56 -5.04,7.32 -5.4,7.08 -5.88,6.84 -6.12,6.36 -6.36,6.24 -6.84,5.76 -7.08,5.4 -7.32,5.05 -7.56,4.67 -7.8,4.2 -8.04,3.84 -8.28,3.36 -8.4,3 -8.52,2.52 -8.64,2.16 -8.76,1.56 -8.76,1.2 -8.88,0.72 -9,0.12"
         inkscape:connector-curvature="0" />
    </g>
    <path
       style="fill:none;stroke:#0d6299;stroke-width:2;stroke-linecap:round;stroke-linejoin:round;stroke-miterlimit:4;stroke-opacity:1;stroke-dasharray:none;marker-mid:none;marker-end:url(#Arrow2Mend)"
       id="path56"
       d="m 297.73478,400.12857 0,-247.95"
       inkscape:connector-curvature="0" />
    <path
       style="fill:none;stroke:#00b800;stroke-width:2;stroke-linecap:round;stroke-linejoin:round;stroke-miterlimit:10;stroke-opacity:1;stroke-dasharray:none;marker-start:none;marker-end:url(#Arrow1Mend)"
       id="path68"
       d="m 393.88478,300.52857 121.8,0"
       inkscape:connector-curvature="0" />
    <path
       style="fill:none;stroke:#00b800;stroke-width:2;stroke-linecap:round;stroke-linejoin:round;stroke-miterlimit:10;stroke-opacity:1;stroke-dasharray:none;marker-start:url(#Arrow1Mstart);marker-mid:none;marker-end:url(#Arrow1Mend)"
       id="path64"
       d="m 458.08478,234.22857 -64.2,66.3 -33.9,-125.1"
       inkscape:connector-curvature="0" />
    <text
       style="font-size:24px;font-style:normal;font-weight:normal;fill:#000000;fill-opacity:1;stroke:none;font-family:sans-serif"
       xml:space="preserve"
       id="text3721"
       y="142.5616"
       x="290.47156"><tspan
         id="tspan3727"
         y="142.5616"
         x="290.47156">Z</tspan></text>
    <text
       style="font-size:24px;font-style:normal;font-weight:normal;fill:#000000;fill-opacity:1;stroke:none;font-family:sans-serif"
       xml:space="preserve"
       id="text3721-4"
       y="408.95728"
       x="553.85144"><tspan
         id="tspan4386"
         y="408.95728"
         x="553.85144">Y</tspan></text>
    <text
       style="font-size:24px;font-style:normal;font-weight:normal;fill:#000000;fill-opacity:1;stroke:none;font-family:sans-serif"
       xml:space="preserve"
       id="text3721-4-9"
       y="471.2392"
       x="241.9671"><tspan
         id="tspan4386-4"
         y="471.2392"
         x="241.9671">X</tspan></text>
    <text
       style="font-size:20px;font-style:normal;font-weight:normal;fill:#000000;fill-opacity:1;stroke:none;font-family:sans-serif"
       xml:space="preserve"
       id="text3721-8"
       y="188.99944"
       x="370.94754"><tspan
         id="tspan3727-8"
         y="188.99944"
         x="370.94754">North</tspan></text>
    <text
       style="font-size:20px;font-style:normal;font-weight:normal;fill:#000000;fill-opacity:1;stroke:none;font-family:sans-serif"
       xml:space="preserve"
       id="text3721-8-2"
       y="293.87595"
       x="488.24371"><tspan
         id="tspan3727-8-4"
         y="293.87595"
         x="488.24371">East</tspan></text>
    <text
       style="font-size:20px;font-style:normal;font-weight:normal;fill:#000000;fill-opacity:1;stroke:none;font-family:sans-serif"
       xml:space="preserve"
       id="text3721-8-2-5"
       y="249.72682"
       x="461.30551"><tspan
         id="tspan3727-8-4-5"
         y="249.72682"
         x="461.30551">Up</tspan></text>
    <text
       style="font-size:24px;font-style:normal;font-weight:normal;fill:#000000;fill-opacity:1;stroke:none;font-family:sans-serif"
       xml:space="preserve"
       id="text3721-0"
       y="143.26762"
       x="306.85147"><tspan
         style="font-size:14px"
         id="tspan3727-9"
         y="143.26762"
         x="306.85147">ecef</tspan></text>
    <text
       style="font-size:24px;font-style:normal;font-weight:normal;fill:#000000;fill-opacity:1;stroke:none;font-family:sans-serif"
       xml:space="preserve"
       id="text3721-0-4"
       y="408.52924"
       x="570.01178"><tspan
         style="font-size:14px"
         id="tspan3727-9-8"
         y="408.52924"
         x="570.01178">ecef</tspan></text>
    <text
       style="font-size:24px;font-style:normal;font-weight:normal;fill:#000000;fill-opacity:1;stroke:none;font-family:sans-serif"
       xml:space="preserve"
       id="text3721-0-2"
       y="470.0228"
       x="260.17883"><tspan
         style="font-size:14px"
         id="tspan3727-9-4"
         y="470.0228"
         x="260.17883">ecef</tspan></text>
    <text
       style="font-size:20px;font-style:normal;font-weight:normal;fill:#000000;fill-opacity:1;stroke:none;font-family:sans-serif"
       xml:space="preserve"
       id="text3721-8-2-5-1"
       y="392.43469"
       x="338.42145"><tspan
         id="tspan3727-8-4-5-7"
         y="392.43469"
         x="338.42145">φ</tspan></text>
    <text
       style="font-size:20px;font-style:normal;font-weight:normal;fill:#000000;fill-opacity:1;stroke:none;font-family:sans-serif"
       xml:space="preserve"
       id="text3721-8-2-5-1-1"
       y="434.73334"
       x="308.84061"><tspan
         id="tspan3727-8-4-5-7-1"
         y="434.73334"
         x="308.84061">λ</tspan></text>
  </g>
</svg>
