<?xml version="1.0" encoding="UTF-8" standalone="no"?>
<!-- Created with Inkscape (http://www.inkscape.org/) -->

<svg
   xmlns:dc="http://purl.org/dc/elements/1.1/"
   xmlns:cc="http://creativecommons.org/ns#"
   xmlns:rdf="http://www.w3.org/1999/02/22-rdf-syntax-ns#"
   xmlns:svg="http://www.w3.org/2000/svg"
   xmlns="http://www.w3.org/2000/svg"
   xmlns:sodipodi="http://sodipodi.sourceforge.net/DTD/sodipodi-0.dtd"
   xmlns:inkscape="http://www.inkscape.org/namespaces/inkscape"
   width="658.4375"
   height="252"
   id="svg2"
   version="1.1"
   inkscape:version="0.48.4 r9939"
   sodipodi:docname="New document 1">
  <defs
     id="defs4" />
  <sodipodi:namedview
     id="base"
     pagecolor="#ffffff"
     bordercolor="#666666"
     borderopacity="1.0"
     inkscape:pageopacity="0.0"
     inkscape:pageshadow="2"
     inkscape:zoom="1.4"
     inkscape:cx="342.36206"
     inkscape:cy="111.67506"
     inkscape:document-units="px"
     inkscape:current-layer="layer1"
     showgrid="false"
     fit-margin-top="0"
     fit-margin-left="0"
     fit-margin-right="0"
     fit-margin-bottom="0"
     inkscape:window-width="1920"
     inkscape:window-height="1151"
     inkscape:window-x="-4"
     inkscape:window-y="-4"
     inkscape:window-maximized="1" />
  <metadata
     id="metadata7">
    <rdf:RDF>
      <cc:Work
         rdf:about="">
        <dc:format>image/svg+xml</dc:format>
        <dc:type
           rdf:resource="http://purl.org/dc/dcmitype/StillImage" />
        <dc:title></dc:title>
      </cc:Work>
    </rdf:RDF>
  </metadata>
  <g
     inkscape:label="Layer 1"
     inkscape:groupmode="layer"
     id="layer1"
     transform="translate(0.28125,0.78125)">
    <path
       style="fill:none;stroke:#000000;stroke-width:2;stroke-linecap:butt;stroke-linejoin:round;stroke-miterlimit:4;stroke-opacity:1;stroke-dasharray:2, 2;stroke-dashoffset:0"
       d="M 23.233509,1.2984584 C 599.52553,1.8035344 599.52553,1.8035344 599.52553,1.8035344"
       id="path3792"
       inkscape:connector-curvature="0" />
    <path
       style="fill:none;stroke:#000000;stroke-width:1px;stroke-linecap:butt;stroke-linejoin:miter;stroke-opacity:1"
       d="m 1.0101525,197.26805 c 16.2843565,-9.81698 37.9096885,-10.42557 56.5685425,-12.12183 26.167095,-2.37882 53.479945,-3.93483 79.802055,-1.01015 18.48863,2.05429 34.11444,12.38163 51.51778,18.18275 15.68992,5.22997 31.70893,6.86575 47.47717,12.12183 11.66525,3.88841 21.96683,10.7799 33.33503,15.15229 14.2117,5.46604 31.37742,7.00339 46.46702,8.08122 21.00082,1.50005 54.20585,2.21051 72.73098,-8.08122 7.34815,-4.08231 14.0796,-10.0658 21.2132,-14.14214 2.67628,-1.5293 7.17717,-2.29937 10.10153,-3.03046 9.27004,-2.31751 11.98254,-9.74933 24.24366,-11.11168 23.77154,-2.64128 48.18479,5.48021 70.71068,11.11168 7.41657,1.85414 15.68686,1.77268 23.23351,3.03046 8.40034,1.40006 16.7124,3.50677 25.25381,4.04061 5.04093,0.31506 10.12227,-0.45727 15.15229,0 5.03653,0.45787 10.12558,2.40212 15.15229,3.03046 11.8762,1.48452 23.25812,-0.81305 34.34518,-3.03046 1.32072,-0.26414 2.83594,0.60234 4.04061,0 4.04299,-2.02149 4.58114,-3.30072 8.08122,-5.05076 2.53588,-1.26794 24.02073,-3.43154 28.28428,-4.04061 5.24894,-0.74985 9.81573,-3.03046 15.15228,-3.03046"
       id="path2985"
       inkscape:connector-curvature="0" />
    <rect
       style="fill:#ffffff;stroke:#000000;stroke-width:2;stroke-miterlimit:4;stroke-opacity:1;stroke-dasharray:2, 2;stroke-dashoffset:0"
       id="rect2989"
       width="48.992397"
       height="170.71577"
       x="23.233507"
       y="-2.7421446" />
    <rect
       style="fill:#ffffff;stroke:#000000;stroke-width:2.02861238;stroke-miterlimit:4;stroke-opacity:1;stroke-dasharray:2.02861234, 2.02861234;stroke-dashoffset:0"
       id="rect2989-1"
       width="48.963787"
       height="175.73792"
       x="111.25735"
       y="-2.7278395" />
    <rect
       style="fill:#ffffff;stroke:#000000;stroke-width:2.14973879;stroke-miterlimit:4;stroke-opacity:1;stroke-dasharray:2.14973879, 2.14973879;stroke-dashoffset:0"
       id="rect2989-7"
       width="48.842659"
       height="197.84015"
       x="199.32744"
       y="-2.6672735" />
    <rect
       y="-2.6038313"
       x="287.40039"
       height="222.46201"
       width="48.715771"
       id="rect3784"
       style="fill:#ffffff;stroke:#000000;stroke-width:2.27662516;stroke-miterlimit:4;stroke-opacity:1;stroke-dasharray:2.27662523, 2.27662523;stroke-dashoffset:0" />
    <rect
       style="fill:#ffffff;stroke:#000000;stroke-width:2.15240788;stroke-miterlimit:4;stroke-opacity:1;stroke-dasharray:2.15240784, 2.15240784;stroke-dashoffset:0"
       id="rect3786"
       width="48.839989"
       height="198.34256"
       x="375.34781"
       y="-2.6659422" />
    <rect
       y="-2.6659422"
       x="463.35733"
       height="198.34256"
       width="48.839989"
       id="rect3788"
       style="fill:#ffffff;stroke:#000000;stroke-width:2.15240788;stroke-miterlimit:4;stroke-opacity:1;stroke-dasharray:2.15240784, 2.15240784;stroke-dashoffset:0" />
    <rect
       style="fill:#ffffff;stroke:#000000;stroke-width:2.20246816;stroke-miterlimit:4;stroke-opacity:1;stroke-dasharray:2.20246808, 2.20246808;stroke-dashoffset:0"
       id="rect3790"
       width="48.789928"
       height="207.88895"
       x="551.39191"
       y="-2.6409101" />
    <path
       style="fill:#ffffff;stroke:#000000;stroke-width:1px;stroke-linecap:butt;stroke-linejoin:miter;stroke-opacity:1"
       d="M 45.714286,28.428571 C 54.047063,25.30378 61.075053,25.035352 70,24.142857 c 17.805095,-1.78051 34.18865,-2.11226 52.14286,0 6.65232,0.782626 14.28854,-0.499151 20.71428,1.428571 10.63542,3.190624 17.68929,10.462303 27.14286,15.714286 1.42857,0.714286 2.85714,1.428571 4.28571,2.142857 1.19048,0.238095 2.4662,0.211908 3.57143,0.714286 1.56304,0.71047 2.72682,2.13765 4.28572,2.857143 10.57142,4.879118 23.64872,5.293444 35,6.428571 7.04563,0.704564 50.13186,10.186854 47.14285,22.142857 -0.43223,1.728957 -1.07554,1.434054 -2.14285,2.857143 -10.12786,13.503811 -30.13523,14.285715 -45.71429,14.285715 -32.72679,0 -68.097,2.80917 -100,-3.571429 -1.04412,-0.208823 -1.83725,-1.122605 -2.85714,-1.428571 C 106.19593,85.501635 111.91037,87.681074 107.14286,87 101.77191,86.232722 95.870857,83.506857 91.428572,81.285714 88.615358,79.879107 85.638437,80.33484 82.857143,79.142857 75.867228,76.147179 68.379541,73.892328 61.428571,71.285714 54.535125,68.700672 60.9446,71.89245 55,70.571428 48.319985,69.086981 42.720867,67.714286 35.714286,67.714286 33.677946,67.714286 26.270383,69.063763 25,68.428571 23.443921,68.695552 24.761905,67.238095 24.285714,67 -3.7367116,65.144941 34.21915,33.132061 45.714286,28.428571 z"
       id="path3802"
       inkscape:connector-curvature="0"
       transform="translate(-0.28125,-0.78125)"
       sodipodi:nodetypes="csssccssssssssssssssccc" />
    <path
       style="fill:#ffffff;stroke:#000000;stroke-width:1px;stroke-linecap:butt;stroke-linejoin:miter;stroke-opacity:1"
       d="m 347.14286,74.857143 c 16.57772,7.206516 27.92599,23.41399 42.14285,34.285717 4.4113,3.37334 9.70255,5.43557 14.28572,8.57143 5.98606,4.09572 11.62584,9.11836 17.85714,12.85714 9.91453,5.94871 24.90833,8.52316 36.42857,6.42857 10.87569,-1.9774 22.16473,-12.2856 29.28572,-20 4.87678,-5.28318 15.90108,-15.40647 17.14285,-22.857143 1.84473,-11.068355 -2.469,-19.853682 -8.57142,-28.571429 -2.91371,-4.162438 -4.17816,-8.463872 -7.85715,-12.142857 -7.17119,-7.171198 -16.37978,-10.237677 -25.71428,-13.571428 -5.63114,-2.011119 -5.75719,-3.0843 -12.14286,-5 -15.34801,-4.604405 -32.60636,-6.302591 -48.57143,-7.142858 -4.04202,-0.212738 -8.11999,0.446985 -12.14286,0 -2.41325,-0.268139 -4.7296,-1.160432 -7.14285,-1.428571 -5.63965,-0.626628 -11.48321,0.435358 -17.14286,0 -11.4082,-0.877554 -23.0494,-1.918551 -31.42857,7.857143 -0.69296,0.808452 -0.74691,2.039145 -1.42857,2.857143 -2.2305,2.676599 -4.82236,5.003712 -5.71429,8.571428 -1.80246,15.948067 3.23978,10.786373 9.28572,16.428572 0.43977,0.439776 0.44591,3.034679 0.71428,3.571428 0.21296,0.425918 1.09186,-0.336717 1.42857,0 0.35715,0.357143 0.35715,1.071429 0.71429,1.428572 1.10365,1.103652 4.1556,-0.130112 5,0.714286 1.30292,1.302917 1.992,4.510484 3.57143,7.142857 z"
       id="path3804"
       inkscape:connector-curvature="0"
       transform="translate(-0.28125,-0.78125)"
       sodipodi:nodetypes="cssssssssssssssssccscssc" />
    <path
       style="fill:#ffffff;stroke:#000000;stroke-width:1px;stroke-linecap:butt;stroke-linejoin:miter;stroke-opacity:1"
       d="m 290.71429,164.14286 c -6.49329,-1.44296 -12.31564,-5 -19.28572,-5 -6.00038,0 -21.37077,-2.97274 -24.28571,2.85714 -0.62506,1.25011 -3.39554,6.60447 -2.14286,7.85714 4.802,4.802 11.57685,6.478 17.85714,8.57143 2.27843,0.75948 5.76041,0.88482 7.85715,2.14286 8.01205,4.80723 22.18143,14.96142 30.71428,6.42857 0.89882,-0.89882 3.50339,-1.36054 4.28572,-2.14286 9.80234,-11.93923 -5.05377,-18.30046 -15,-20.71428 z"
       id="path3806"
       inkscape:connector-curvature="0"
       transform="translate(-0.28125,-0.78125)"
       sodipodi:nodetypes="csssssscc" />
    <path
       style="fill:#ffffff;stroke:#000000;stroke-width:1px;stroke-linecap:butt;stroke-linejoin:miter;stroke-opacity:1"
       d="m 568.57143,150.57143 c 7.37579,0 15.55932,-0.97304 22.85714,0 15.72519,2.09669 33.68254,9.69841 47.14286,16.42857 2.64886,1.32443 9.21574,5.81925 6.42857,10 -2.06532,3.09798 -0.92163,-0.19593 -2.14286,2.85714 -1.66556,4.16392 -5.27517,7.06968 -10,7.85715 -15.54266,2.59044 -34.34633,-2.01213 -49.28571,-5 -1.40083,-0.28017 -2.8998,0.34648 -4.28572,0 -1.94147,-0.48537 -4.06262,-2.63406 -5,-3.57143 -1.1273,-1.12731 -15.42681,-8.08113 -17.14285,-8.57143 -2.3423,-0.66923 -4.64728,0.11757 -7.14286,-0.71429 -3.40077,-1.13359 -6.06365,-3.38896 -9.28571,-5 -1.40834,-0.70417 -3.62336,-0.026 -5,-0.71428 -23.9158,-10.77255 23.39346,-13.44972 32.85714,-13.57143 z"
       id="path3808"
       inkscape:connector-curvature="0"
       transform="translate(-0.28125,-0.78125)"
       sodipodi:nodetypes="cssssssssssscc" />
    <path
       style="fill:none;stroke:#ff0000;stroke-width:1;stroke-linecap:butt;stroke-linejoin:miter;stroke-opacity:1;stroke-miterlimit:4;stroke-dasharray:2,1;stroke-dashoffset:0"
       d="M 23.290179,108.3616 C 24.004465,72.647324 6.8616072,79.07589 6.8616072,56.933036 c 0,-22.142858 14.9999998,-14.285714 16.4285718,-45.714287"
       id="path3812"
       inkscape:connector-curvature="0"
       sodipodi:nodetypes="csc" />
    <path
       sodipodi:nodetypes="csc"
       inkscape:connector-curvature="0"
       id="path3814"
       d="M 73.290179,131.21874 C 74.718751,66.218753 7.1630565,99.080951 6.8616074,57.647322 6.5290384,11.936326 71.147322,24.790179 71.147322,1.218749"
       style="fill:none;stroke:#ff0000;stroke-width:1;stroke-linecap:butt;stroke-linejoin:miter;stroke-miterlimit:4;stroke-opacity:1;stroke-dasharray:2, 1;stroke-dashoffset:0" />
    <path
       style="fill:none;stroke:#ff0000;stroke-width:1;stroke-linecap:butt;stroke-linejoin:miter;stroke-miterlimit:4;stroke-opacity:1;stroke-dasharray:2, 1;stroke-dashoffset:0"
       d="M 111.86161,134.07588 C 113.29018,69.075896 7.8554977,96.938243 7.5758931,55.504465 7.2433241,6.2220404 109.71875,27.647322 109.71875,4.0758919"
       id="path3816"
       inkscape:connector-curvature="0"
       sodipodi:nodetypes="csc" />
    <path
       sodipodi:nodetypes="csc"
       inkscape:connector-curvature="0"
       id="path3818"
       d="M 160.44662,133.36159 C 159.01805,68.36161 269.45272,121.93824 269.73233,74.790179 270.0246,25.507499 161.87519,54.075893 161.87519,0.50446334"
       style="fill:none;stroke:#ff0000;stroke-width:1;stroke-linecap:butt;stroke-linejoin:miter;stroke-miterlimit:4;stroke-opacity:1;stroke-dasharray:2, 1;stroke-dashoffset:0" />
    <path
       style="fill:none;stroke:#ff0000;stroke-width:1;stroke-linecap:butt;stroke-linejoin:miter;stroke-miterlimit:4;stroke-opacity:1;stroke-dasharray:2, 1;stroke-dashoffset:0"
       d="m 198.30376,136.21873 c -2.14286,-57.85712 73.07839,-13.59425 71.42857,-60.714265 -1.85059,-52.854109 -70,-18.571429 -70,-72.1428588"
       id="path3820"
       inkscape:connector-curvature="0"
       sodipodi:nodetypes="csc" />
    <path
       sodipodi:nodetypes="csc"
       inkscape:connector-curvature="0"
       id="path3822"
       d="M 246.87519,134.79016 C 244.73233,88.36161 271.44645,106.93712 271.1609,74.79018 270.87542,42.650296 248.30376,55.504465 248.30376,1.9330348"
       style="fill:none;stroke:#ff0000;stroke-width:1;stroke-linecap:butt;stroke-linejoin:miter;stroke-miterlimit:4;stroke-opacity:1;stroke-dasharray:2, 1;stroke-dashoffset:0" />
    <path
       style="fill:none;stroke:#ff0000;stroke-width:1;stroke-linecap:butt;stroke-linejoin:miter;stroke-miterlimit:4;stroke-opacity:1;stroke-dasharray:2, 1;stroke-dashoffset:0"
       d="m 286.87519,221.21873 c 0.71428,-41.42855 25.61185,-21.42902 25,-48.57141 -0.33805,-14.99593 -25.71429,-6.42857 -23.57143,-37.14286"
       id="path3824"
       inkscape:connector-curvature="0"
       sodipodi:nodetypes="csc" />
    <path
       sodipodi:nodetypes="csc"
       inkscape:connector-curvature="0"
       id="path3826"
       d="m 249.02914,194.79016 c -0.71428,-19.99998 -9.18328,-20.71474 -8.57143,-32.14284 0.80192,-14.97829 8.57143,-8.57143 6.42857,-22.85715"
       style="fill:none;stroke:#ff0000;stroke-width:1;stroke-linecap:butt;stroke-linejoin:miter;stroke-miterlimit:4;stroke-opacity:1;stroke-dasharray:2, 1;stroke-dashoffset:0" />
    <path
       style="fill:none;stroke:#ff0000;stroke-width:1;stroke-linecap:butt;stroke-linejoin:miter;stroke-miterlimit:4;stroke-opacity:1;stroke-dasharray:2, 1;stroke-dashoffset:0"
       d="m 336.75508,-1.6383938 c 2.14286,34.9999768 -15.99983,26.1503918 -15.71428,49.2856918 0.39667,32.138704 15.71428,2.142858 14.28571,83.571432"
       id="path3828"
       inkscape:connector-curvature="0"
       sodipodi:nodetypes="csc" />
    <path
       sodipodi:nodetypes="csc"
       inkscape:connector-curvature="0"
       id="path3830"
       d="m 374.61222,-2.3526795 c 2.14286,34.9999765 -53.85697,9.7218203 -53.57142,49.9999775 0.22786,32.140344 55.71428,29.285715 54.28571,85.714292"
       style="fill:none;stroke:#ff0000;stroke-width:1;stroke-linecap:butt;stroke-linejoin:miter;stroke-miterlimit:4;stroke-opacity:1;stroke-dasharray:2, 1;stroke-dashoffset:0" />
    <path
       style="fill:none;stroke:#ff0000;stroke-width:1;stroke-linecap:butt;stroke-linejoin:miter;stroke-miterlimit:4;stroke-opacity:1;stroke-dasharray:2, 1;stroke-dashoffset:0"
       d="M 423.89793,-6.6383938 C 426.04079,28.361583 320.75525,7.3691408 321.0408,47.647298 321.26866,79.787642 425.32651,114.07587 423.89794,170.50445"
       id="path3832"
       inkscape:connector-curvature="0"
       sodipodi:nodetypes="csc" />
    <path
       sodipodi:nodetypes="csc"
       inkscape:connector-curvature="0"
       id="path3834"
       d="m 425.3582,172.64731 c -2.14286,-34.99998 85.82699,-22.5781 86.42856,-82.142833 0.82232,-81.4222267 -87.85714,-43.571434 -86.42857,-95.0000137"
       style="fill:none;stroke:#ff0000;stroke-width:1;stroke-linecap:butt;stroke-linejoin:miter;stroke-miterlimit:4;stroke-opacity:1;stroke-dasharray:2, 1;stroke-dashoffset:0" />
    <path
       style="fill:none;stroke:#ff0000;stroke-width:1;stroke-linecap:butt;stroke-linejoin:miter;stroke-miterlimit:4;stroke-opacity:1;stroke-dasharray:2, 1;stroke-dashoffset:0"
       d="M 463.21534,170.50445 C 461.07248,127.64733 511.69575,140.78646 511.78676,90.504477 511.91475,19.796569 461.07248,54.790186 462.50105,3.3616062"
       id="path3836"
       inkscape:connector-curvature="0"
       sodipodi:nodetypes="csc" />
    <path
       sodipodi:nodetypes="csc"
       inkscape:connector-curvature="0"
       id="path3838"
       d="m 597.58947,204.79016 c 44.28571,-2.85712 52.45021,-25.04911 52.85715,-35.71427 0.62751,-16.44621 -52.14287,-11.42857 -50.71429,-45.71429"
       style="fill:none;stroke:#ff0000;stroke-width:1;stroke-linecap:butt;stroke-linejoin:miter;stroke-miterlimit:4;stroke-opacity:1;stroke-dasharray:2, 1;stroke-dashoffset:0" />
    <path
       style="fill:none;stroke:#ff0000;stroke-width:1;stroke-linecap:butt;stroke-linejoin:miter;stroke-miterlimit:4;stroke-opacity:1;stroke-dasharray:2, 1;stroke-dashoffset:0"
       d="m 551.16645,196.21873 c 10e-6,-32.14283 -26.73592,-27.90625 -27.14286,-38.57141 -0.62751,-16.44621 29.28573,0.71428 27.85715,-33.57144"
       id="path3840"
       inkscape:connector-curvature="0"
       sodipodi:nodetypes="csc" />
  </g>
</svg>
