<?xml version="1.0" encoding="UTF-8" standalone="no"?>
<!-- Created with Inkscape (http://www.inkscape.org/) -->

<svg
   xmlns:dc="http://purl.org/dc/elements/1.1/"
   xmlns:cc="http://creativecommons.org/ns#"
   xmlns:rdf="http://www.w3.org/1999/02/22-rdf-syntax-ns#"
   xmlns:svg="http://www.w3.org/2000/svg"
   xmlns="http://www.w3.org/2000/svg"
   xmlns:sodipodi="http://sodipodi.sourceforge.net/DTD/sodipodi-0.dtd"
   xmlns:inkscape="http://www.inkscape.org/namespaces/inkscape"
   width="658.4375"
   height="252"
   id="svg2"
   version="1.1"
   inkscape:version="0.48.4 r9939">
  <defs
     id="defs4" />
  <sodipodi:namedview
     id="base"
     pagecolor="#ffffff"
     bordercolor="#666666"
     borderopacity="1.0"
     inkscape:pageopacity="0.0"
     inkscape:pageshadow="2"
     inkscape:zoom="1.4"
     inkscape:cx="342.36206"
     inkscape:cy="111.67506"
     inkscape:document-units="px"
     inkscape:current-layer="layer1"
     showgrid="false"
     fit-margin-top="0"
     fit-margin-left="0"
     fit-margin-right="0"
     fit-margin-bottom="0"
     inkscape:window-width="1920"
     inkscape:window-height="1151"
     inkscape:window-x="-4"
     inkscape:window-y="-4"
     inkscape:window-maximized="1" />
  <metadata
     id="metadata7">
    <rdf:RDF>
      <cc:Work
         rdf:about="">
        <dc:format>image/svg+xml</dc:format>
        <dc:type
           rdf:resource="http://purl.org/dc/dcmitype/StillImage" />
        <dc:title></dc:title>
      </cc:Work>
    </rdf:RDF>
  </metadata>
  <g
     inkscape:label="Layer 1"
     inkscape:groupmode="layer"
     id="layer1"
     transform="translate(0.28125,0.78125)">
    <path
       style="fill:none;stroke:#000000;stroke-width:2;stroke-linecap:butt;stroke-linejoin:round;stroke-miterlimit:4;stroke-opacity:1;stroke-dasharray:2, 2;stroke-dashoffset:0"
       d="M 23.233509,1.2984584 C 599.52553,1.8035344 599.52553,1.8035344 599.52553,1.8035344"
       id="path3792"
       inkscape:connector-curvature="0" />
    <path
       style="fill:none;stroke:#000000;stroke-width:1px;stroke-linecap:butt;stroke-linejoin:miter;stroke-opacity:1"
       d="m 1.0101525,197.26805 c 16.2843565,-9.81698 37.9096885,-10.42557 56.5685425,-12.12183 26.167095,-2.37882 53.479945,-3.93483 79.802055,-1.01015 18.48863,2.05429 34.11444,12.38163 51.51778,18.18275 15.68992,5.22997 31.70893,6.86575 47.47717,12.12183 11.66525,3.88841 21.96683,10.7799 33.33503,15.15229 14.2117,5.46604 31.37742,7.00339 46.46702,8.08122 21.00082,1.50005 54.20585,2.21051 72.73098,-8.08122 7.34815,-4.08231 14.0796,-10.0658 21.2132,-14.14214 2.67628,-1.5293 7.17717,-2.29937 10.10153,-3.03046 9.27004,-2.31751 11.98254,-9.74933 24.24366,-11.11168 23.77154,-2.64128 48.18479,5.48021 70.71068,11.11168 7.41657,1.85414 15.68686,1.77268 23.23351,3.03046 8.40034,1.40006 16.7124,3.50677 25.25381,4.04061 5.04093,0.31506 10.12227,-0.45727 15.15229,0 5.03653,0.45787 10.12558,2.40212 15.15229,3.03046 11.8762,1.48452 23.25812,-0.81305 34.34518,-3.03046 1.32072,-0.26414 2.83594,0.60234 4.04061,0 4.04299,-2.02149 4.58114,-3.30072 8.08122,-5.05076 2.53588,-1.26794 24.02073,-3.43154 28.28428,-4.04061 5.24894,-0.74985 9.81573,-3.03046 15.15228,-3.03046"
       id="path2985"
       inkscape:connector-curvature="0" />
    <rect
       style="fill:#ffffff;stroke:#000000;stroke-width:2;stroke-miterlimit:4;stroke-opacity:1;stroke-dasharray:2, 2;stroke-dashoffset:0"
       id="rect2989"
       width="48.992397"
       height="170.71577"
       x="23.233507"
       y="-2.7421446" />
    <rect
       style="fill:#ffffff;stroke:#000000;stroke-width:2.02861238;stroke-miterlimit:4;stroke-opacity:1;stroke-dasharray:2.02861234, 2.02861234;stroke-dashoffset:0"
       id="rect2989-1"
       width="48.963787"
       height="175.73792"
       x="111.25735"
       y="-2.7278395" />
    <rect
       style="fill:#ffffff;stroke:#000000;stroke-width:2.14973879;stroke-miterlimit:4;stroke-opacity:1;stroke-dasharray:2.14973879, 2.14973879;stroke-dashoffset:0"
       id="rect2989-7"
       width="48.842659"
       height="197.84015"
       x="199.32744"
       y="-2.6672735" />
    <rect
       y="-2.6038313"
       x="287.40039"
       height="222.46201"
       width="48.715771"
       id="rect3784"
       style="fill:#ffffff;stroke:#000000;stroke-width:2.27662516;stroke-miterlimit:4;stroke-opacity:1;stroke-dasharray:2.27662523, 2.27662523;stroke-dashoffset:0" />
    <rect
       style="fill:#ffffff;stroke:#000000;stroke-width:2.15240788;stroke-miterlimit:4;stroke-opacity:1;stroke-dasharray:2.15240784, 2.15240784;stroke-dashoffset:0"
       id="rect3786"
       width="48.839989"
       height="198.34256"
       x="375.34781"
       y="-2.6659422" />
    <rect
       y="-2.6659422"
       x="463.35733"
       height="198.34256"
       width="48.839989"
       id="rect3788"
       style="fill:#ffffff;stroke:#000000;stroke-width:2.15240788;stroke-miterlimit:4;stroke-opacity:1;stroke-dasharray:2.15240784, 2.15240784;stroke-dashoffset:0" />
    <rect
       style="fill:#ffffff;stroke:#000000;stroke-width:2.20246816;stroke-miterlimit:4;stroke-opacity:1;stroke-dasharray:2.20246808, 2.20246808;stroke-dashoffset:0"
       id="rect3790"
       width="48.789928"
       height="207.88895"
       x="551.39191"
       y="-2.6409101" />
  </g>
</svg>
